# xmcd CD database file
#
# Track frame offsets:
#	150
#	15687
#	31887
#	45865
#	63620
#	76187
#	90342
#	105767
#	124912
#	143672
#	157225
#	172975
#	186065
#	200317
#	216470
#	229367
#	245282
#	259505
#	273465
#
# Disc length: 3845 seconds
#
# Revision: 0
# Processed by: cddbd v1.4PL0 Copyright (c) Steve Scherf et al.
# Submitted via: CDex 1.50Beta7
#
DISCID=f70f0313
DTITLE=Mats Rådberg and Rankarna - Country Classics disc 1 - På Svenska
DYEAR=1995
DGENRE=Country
TTITLE0=Peta inn en pinne i brasan
TTITLE1=Många mil
TTITLE2=Mamma, låt ej din grabb växa upp til en cowboy
TTITLE3=Go' morron Sverige
TTITLE4=Pappa, vad händer då?
TTITLE5=Tack för kaffet
TTITLE6=Om det är bara spel
TTITLE7=Det är inte lätt att va' ödmjuk
TTITLE8=Jag såg henne hastigt
TTITLE9=Kungsgatans neon
TTITLE10=En spelemans lön
TTITLE11=Full fart mot gryningen
TTITLE12=Du kan alltid lita på grabbarna över 35
TTITLE13=Gör det igen
TTITLE14=En sjöhustrus ballad
TTITLE15=Precis som jag är
TTITLE16=Klia mig på ryggen
TTITLE17=En skön värld  (med allt att vinna)
TTITLE18=Ryttare på vägen
EXTD=YEAR: 1995
EXTT0=
EXTT1=
EXTT2=
EXTT3=
EXTT4=
EXTT5=
EXTT6=
EXTT7=
EXTT8=
EXTT9=
EXTT10=
EXTT11=
EXTT12=
EXTT13=
EXTT14=
EXTT15=
EXTT16=
EXTT17=
EXTT18=
PLAYORDER=
